<svg width="68" height="54" viewBox="0 0 68 54" fill="none" xmlns="http://www.w3.org/2000/svg">
<path d="M66.7999 24.9164L51.3203 8.51642C50.3999 7.51234 48.8101 7.42866 47.806 8.43275C46.8019 9.35316 46.7183 10.943 47.7224 11.947L61.5285 26.6736L47.6387 41.3164C46.7183 42.3205 46.7183 43.9103 47.7224 44.8307C48.2244 45.2491 48.8101 45.5001 49.4795 45.5001C50.1489 45.5001 50.8183 45.2491 51.3203 44.7471L66.7999 28.347C67.7203 27.4266 67.7203 25.9205 66.7999 24.9164Z" fill="#00C853"/>
<path d="M20.2774 8.43263C19.2733 7.51222 17.6835 7.51222 16.7631 8.5163L1.19983 24.9163C0.279419 25.9204 0.279419 27.4265 1.19983 28.3469L16.6794 44.7469C17.1815 45.2489 17.8509 45.5 18.5202 45.5C19.106 45.5 19.7753 45.2489 20.2774 44.8306C21.2815 43.9102 21.3651 42.3204 20.3611 41.3163L6.47126 26.6734L20.3611 12.0306C21.2815 11.0265 21.2815 9.43671 20.2774 8.43263Z" fill="#00C853"/>
<path d="M38.0999 0.0652796C36.7611 -0.102067 35.4223 0.818341 35.255 2.15712L27.8917 50.353C27.7243 51.6918 28.6448 53.0306 29.9835 53.1979C30.1509 53.1979 30.2346 53.1979 30.4019 53.1979C31.657 53.1979 32.6611 52.2775 32.9121 51.1061L40.2754 2.91018C40.359 1.5714 39.4386 0.3163 38.0999 0.0652796Z" fill="#00C853"/>
</svg>
